<?xml version="1.0" standalone="no"?>
<!DOCTYPE svg PUBLIC "-//W3C//DTD SVG 20010904//EN"
 "http://www.w3.org/TR/2001/REC-SVG-20010904/DTD/svg10.dtd">
<svg version="1.0" xmlns="http://www.w3.org/2000/svg"
 width="1084.000000pt" height="1084.000000pt" viewBox="0 0 1084.000000 1084.000000"
 preserveAspectRatio="xMidYMid meet">
<metadata>
Created by potrace 1.11, written by Peter Selinger 2001-2013
</metadata>
<g transform="translate(0.000000,1084.000000) scale(0.100000,-0.100000)"
fill="#000000" stroke="none">
<path d="M5417 10504 c-1 -1 -56 -4 -122 -8 -199 -9 -532 -47 -557 -62 -3 -2
-7 -1691 -7 -3752 -1 -2061 -3 -3767 -5 -3792 -11 -128 -30 -293 -41 -350 -3
-14 -8 -41 -11 -60 -67 -376 -230 -745 -452 -1024 -206 -259 -509 -478 -824
-597 -49 -18 -88 -35 -88 -38 1 -20 458 -207 686 -281 130 -42 458 -129 544
-144 14 -2 63 -11 110 -20 123 -23 139 -25 200 -32 30 -3 57 -7 60 -9 3 -1 43
-6 90 -10 47 -4 93 -9 102 -10 118 -23 860 -23 948 0 8 2 44 7 80 10 36 4 76
8 90 10 14 2 61 9 105 15 417 58 926 207 1335 391 337 151 766 408 1020 611
192 152 283 232 407 353 l102 100 -39 116 c-21 63 -41 128 -44 145 -3 16 -10
52 -16 79 -6 28 -12 61 -15 75 -11 61 -17 80 -26 80 -5 0 -9 -4 -9 -9 0 -25
-263 -261 -375 -336 -33 -22 -62 -43 -65 -46 -9 -10 -193 -114 -255 -143 -192
-91 -457 -171 -636 -192 -30 -3 -57 -8 -60 -10 -41 -24 -737 -24 -778 0 -3 2
-29 6 -58 10 -29 3 -74 10 -100 16 -26 5 -59 12 -73 14 -49 8 -196 48 -280 76
-466 155 -894 473 -1157 860 -131 193 -241 447 -279 643 -2 10 -5 26 -8 35 -3
9 -8 35 -11 57 -3 23 -7 51 -10 63 -19 101 -25 428 -11 567 10 90 22 175 32
230 2 11 7 34 10 50 37 209 146 473 279 676 237 362 629 659 1110 841 137 52
365 122 463 143 9 2 50 11 89 19 40 9 85 18 100 21 16 3 37 7 48 9 11 2 40 7
65 11 25 4 52 9 60 10 8 1 40 6 70 10 30 4 62 9 70 10 8 1 47 6 85 9 39 4 88
9 110 12 174 21 404 27 962 28 536 1 543 1 544 21 4 92 1 440 -5 519 -21 292
-121 531 -295 703 -103 102 -244 173 -426 213 -151 34 -467 37 -617 6 -16 -3
-40 -9 -55 -12 -151 -30 -338 -129 -443 -234 -134 -132 -217 -332 -223 -533
l-2 -52 -940 0 -940 0 0 75 c0 41 3 100 7 130 4 30 10 77 13 104 3 27 8 52 10
56 2 4 7 22 10 41 20 113 111 359 178 479 17 30 35 64 41 75 6 11 37 59 68
105 263 389 632 681 1131 894 98 42 348 131 394 141 10 2 61 15 113 28 87 23
168 41 231 52 120 20 215 35 269 40 36 4 72 9 80 10 126 24 733 24 905 1 17
-3 59 -8 95 -11 62 -7 74 -9 130 -19 14 -3 42 -8 63 -11 194 -27 488 -112 682
-197 50 -22 97 -42 104 -45 71 -31 -408 487 -618 667 -35 30 -69 60 -75 65 -6
6 -56 47 -111 91 -393 314 -810 558 -1279 749 -188 77 -550 195 -675 220 -9 2
-67 15 -128 29 -200 45 -386 74 -648 101 -123 12 -598 27 -608 19z"/>
<path d="M2720 9638 c-95 -64 -259 -183 -306 -221 -235 -189 -496 -436 -670
-632 -532 -600 -924 -1336 -1118 -2100 -45 -178 -62 -250 -71 -300 -9 -56 -15
-90 -25 -140 -5 -27 -12 -72 -16 -100 -3 -27 -8 -59 -10 -70 -2 -11 -7 -49
-10 -85 -3 -36 -7 -76 -9 -90 -26 -148 -26 -844 -1 -1000 3 -14 7 -55 11 -92
3 -37 8 -80 11 -95 2 -15 6 -41 9 -58 2 -16 7 -48 10 -70 5 -36 14 -83 30
-170 3 -16 8 -43 11 -60 26 -143 176 -659 229 -780 7 -16 27 -66 45 -110 57
-142 83 -197 175 -380 129 -254 281 -500 448 -727 l72 -97 55 -7 c30 -3 64 -8
74 -10 34 -6 210 -16 313 -18 175 -3 338 30 469 94 211 105 336 299 379 587
13 90 15 511 15 3453 0 1842 -3 3350 -7 3350 -5 0 -55 -32 -113 -72z"/>
<path d="M8127 4884 c-1 -1 -47 -5 -102 -8 -56 -4 -112 -8 -125 -11 -14 -2
-47 -6 -75 -10 -27 -3 -57 -8 -65 -10 -8 -2 -31 -6 -50 -9 -19 -3 -62 -13 -95
-21 -33 -8 -68 -17 -78 -20 -10 -2 -46 -14 -80 -26 -334 -119 -563 -340 -644
-624 -40 -140 -46 -183 -47 -345 -1 -147 2 -173 22 -240 67 -214 208 -379 407
-475 154 -75 276 -99 500 -99 154 0 237 8 354 33 391 86 712 296 896 586 l38
60 -1 600 c0 330 -1 605 -1 610 -1 7 -146 10 -427 10 -234 0 -426 -1 -427 -1z"/>
</g>
</svg>
