<?xml version="1.0" standalone="no"?>
<!DOCTYPE svg PUBLIC "-//W3C//DTD SVG 20010904//EN"
 "http://www.w3.org/TR/2001/REC-SVG-20010904/DTD/svg10.dtd">
<svg version="1.0" xmlns="http://www.w3.org/2000/svg"
 width="583.000000pt" height="583.000000pt" viewBox="0 0 583.000000 583.000000"
 preserveAspectRatio="xMidYMid meet">
<metadata>
Created by potrace 1.11, written by Peter Selinger 2001-2013
</metadata>
<g transform="translate(0.000000,583.000000) scale(0.100000,-0.100000)"
fill="#000000" stroke="none">
<path d="M2857 5824 c-1 -1 -54 -4 -117 -8 -63 -3 -126 -8 -140 -10 -14 -3
-47 -7 -75 -10 -42 -4 -110 -17 -285 -52 -167 -34 -480 -151 -660 -246 -52
-28 -108 -57 -124 -66 -42 -22 -301 -197 -328 -221 -13 -11 -57 -49 -98 -83
-286 -238 -582 -622 -740 -963 -99 -211 -187 -472 -216 -635 -3 -14 -7 -32 -9
-40 -2 -8 -7 -31 -10 -50 -3 -19 -10 -60 -15 -90 -5 -30 -12 -89 -16 -130 -3
-41 -8 -88 -10 -105 -7 -49 -6 -324 1 -405 13 -145 38 -319 61 -420 9 -36 17
-73 19 -82 18 -85 103 -341 142 -427 62 -138 122 -256 177 -349 398 -669 1045
-1150 1796 -1337 181 -45 295 -63 495 -80 75 -7 341 -7 415 0 36 3 90 8 120
10 30 3 66 7 80 10 14 3 41 7 60 10 237 31 548 131 815 261 375 182 671 415
965 760 176 205 378 555 479 829 45 121 107 334 116 398 4 23 8 44 10 48 4 6
25 126 30 174 2 17 6 51 9 78 3 26 8 68 12 94 11 97 4 455 -11 553 -2 14 -7
50 -10 80 -4 30 -16 98 -26 150 -11 52 -22 106 -25 120 -38 196 -177 549 -300
760 -80 136 -93 157 -148 235 -226 321 -520 597 -851 803 -95 59 -333 184
-374 197 -13 4 -40 14 -60 23 -20 9 -38 16 -41 17 -3 0 -9 3 -15 6 -10 7 -259
89 -285 94 -8 2 -58 13 -110 25 -108 24 -182 38 -255 46 -27 3 -61 7 -75 10
-42 7 -367 23 -373 18z"/>
</g>
</svg>
