<svg xmlns="http://www.w3.org/2000/svg" viewBox="0 0 2672.7 511.91"><title>Asset 7</title><g id="Layer_2" data-name="Layer 2"><g id="reference"><path d="M408.18,203.42q-16.21,9.63-32.91,18.17a17.07,17.07,0,0,0-5.1.85c-16.56,5.56-32.75,12-48.77,18.92a220.35,220.35,0,0,0-37.86,9.18,210.66,210.66,0,0,1-1.15-27.35c.21-10.34-15.8-12.73-18.21-2.46a264.37,264.37,0,0,0-6.32,39.81A276.82,276.82,0,0,0,231.32,274c-26.82,15.64-9.08,58.59,21.19,50.24,4.28-1.18,8.5-2.44,12.74-3.68a70.74,70.74,0,0,0,8.15,14.58c10.84,14.66,31.2,5.72,28.63-12.08a97.14,97.14,0,0,0-2.94-13.1c12-4,23.91-8.29,35.65-12.86,9.69-.06,17.08,2.66,19.29,10.34,2.64,9.17-3.68,23.29-12.49,37.1-4-3.79-7.91-7.62-11.89-11.37-8-7.56-24.39-.17-19.91,11.59A116.69,116.69,0,0,0,323,369.54c-5.24,6.25-10,11.34-13,14.32-22.27,21.64-47.29,32-72,33.29,2.25-16.42,2.57-32.91-1-48.67-2-8.91-13.93-7.42-16.61,0-5.4,14.93-9.07,30.27-12.74,45.64-24.65-6.32-47.57-21.61-65.28-44.09a435,435,0,0,0,37.41-33.58c13.38-13.38-6.85-33.37-20.68-20.68-10.75,9.85-21.72,19.52-32.78,29.08-11.91-23.12-18.68-47.81-19.65-72.21a11.06,11.06,0,0,0,4.15-7c.2-1.2.36-2.34.55-3.52a259.84,259.84,0,0,0,50.49-4.05c14.48-2.63,11.33-27.24-3.5-25.9q-21.44,2-42.66,2.26c2.88-15.44,7.37-29.78,18.72-44.25a195,195,0,0,1,23.57-24.7c16.37,17.26,34,32.82,52.76,44.49,15.4,9.6,30.49-11.71,18.82-24.4-13.61-14.81-30-27.42-45.72-40.45,3.07-2.15,6.15-4.25,9.23-6.24a242.81,242.81,0,0,1,32.57-17.65A169.29,169.29,0,0,0,232,141.1c7.11,18,32.78,11.36,29.21-8-1.46-7.92-3.25-15.76-5.14-23.58,15.22-5,30.71-9.07,46.58-12.86,0,14.12,1.12,28,4.57,41.47s27.12,15.35,29.2,0c2.21-16.2,1.23-32.66-1-49.18l3.83-.91c25.3-6.06,16.88-39.75-5.72-42.26-1.81-.2-3.63-.25-5.45-.39a354.75,354.75,0,0,1-4.88-36.69c-.74-11-17.75-11.15-17.23,0A332.88,332.88,0,0,1,305.27,45c-20.95,1-42.1,5.46-62.69,12.32a377.33,377.33,0,0,1-8.85-45.86c-1.14-9.6-15.11-10.17-15.4,0-.51,17.82-.9,36.51-.08,55.19a350.53,350.53,0,0,0-73,43.32q-16-15.37-31.93-30.89C106,72,92.64,81.31,98.77,90.27c8.07,11.79,16.86,24.07,26.25,36.26C97.49,151.58,66,189.77,65.87,226c-.47,2.13-.77,4.3-1.17,6.44a363.8,363.8,0,0,1-54.25-9.58C-.61,220-4.07,235.3,5.87,239.44A304.71,304.71,0,0,0,61.7,256.78c-2.32,40.61,7.68,82.51,27.42,118.35-9.36,7.1-18.64,14.3-26.93,22.54-5.19,5.15.08,14.14,7.11,12.22a164.92,164.92,0,0,0,33.25-13.47,189.66,189.66,0,0,0,38.14,39.9A147.66,147.66,0,0,0,194,462.67a59.38,59.38,0,0,0-1.36,14.52A105.86,105.86,0,0,0,190.87,499a4.19,4.19,0,0,0,.79,2.36c1.83,13.18,24,14.77,27.61.65,2.92-11.53,5.65-23.12,7.93-34.78,49.6.95,98.73-23.2,133.76-61.71,7.67,4.53,16,7,24,9.88,6.91,2.47,26,9.61,29.17,8.21.15-.07,23.77-3,4.22-25-3.11-3.49-16.08-13-19.81-15.45-4.72-3.06-9.63-5.78-14.56-8.47,2-3.35,4-6.75,5.84-10.23,14.61-27.72,31.25-70.42,13.46-98.4,10.52-5.48,21-11.17,31.35-17.32C463.69,231.51,437.32,186.12,408.18,203.42Z"/><path d="M1803,248q-18.06,5.39-36.34,9.62a16.83,16.83,0,0,0-5.16-.41c-17.41,1.36-34.68,3.7-51.9,6.49a220.3,220.3,0,0,0-39-.31,212.53,212.53,0,0,1,5.54-26.8c2.72-10-12.23-16.2-17.07-6.82a266.13,266.13,0,0,0-15.81,37.08,275.66,275.66,0,0,0-29,6.59c-29.82,8.65-23.06,54.62,8.33,53.89,4.44-.11,8.84-.31,13.26-.47a70.41,70.41,0,0,0,4.36,16.11c7,16.86,28.87,13.15,30.71-4.74a97,97,0,0,0,.33-13.42c12.63-1,25.21-2.24,37.71-3.82,9.41,2.3,15.92,6.74,16.2,14.73.33,9.53-9.24,21.7-21.14,32.95-2.94-4.64-5.83-9.32-8.77-13.93-5.93-9.28-23.62-6.09-22.14,6.41a117.1,117.1,0,0,0,6.88,27.27c-6.6,4.79-12.41,8.58-16.12,10.73-26.86,15.57-53.66,19.55-77.91,14.78,6.18-15.37,10.5-31.3,10.9-47.44.23-9.13-11.71-10.59-16.12-4-8.86,13.17-16.15,27.16-23.44,41.17-22.38-12.12-40.89-32.53-52.61-58.64a433.2,433.2,0,0,0,44.46-23.48c16.23-9.72,1.47-34-15-25.08-12.82,6.94-25.82,13.65-38.87,20.24-5.94-25.33-6.49-50.92-1.5-74.83a11,11,0,0,0,5.73-5.79c.49-1.11.92-2.18,1.38-3.27a261.44,261.44,0,0,0,50,8.35c14.68,1,17.62-23.67,2.9-26q-21.27-3.33-41.92-8.18c6.54-14.28,14.38-27.09,28.91-38.37a195.29,195.29,0,0,1,28.87-18.23c11.68,20.73,25,40.1,40.35,56,12.61,13.05,32.43-3.95,24.2-19.09-9.6-17.68-22.46-33.9-34.51-50.36,3.5-1.34,7-2.62,10.46-3.81a243,243,0,0,1,35.89-9.2,169.58,169.58,0,0,0,1.24,20.81c2.51,19.22,29,19,30.28-.71.52-8,.69-16.08.76-24.12,16-1.15,32-1.32,48.31-1.15-3.42,13.71-5.74,27.48-5.66,41.34s22.57,21.49,28.33,7.1c6.08-15.18,9.14-31.38,11-47.93l3.94,0c26,.26,26-34.45,4.73-42.38-1.71-.64-3.46-1.13-5.19-1.71A353.25,353.25,0,0,1,1768,38.45c2-10.82-14.51-15.14-16.71-4.19a334.75,334.75,0,0,1-9.53,35c-20.57-4.12-42.16-4.93-63.8-3.28a375.92,375.92,0,0,1,2.56-46.64c1.23-9.59-12.18-13.54-14.94-3.74-4.83,17.15-9.75,35.19-13.5,53.5a351.09,351.09,0,0,0-81.33,24.28c-7.87-12.54-15.64-25.15-23.46-37.73-5.36-8.63-20.62-2.83-16.85,7.36,5,13.39,10.5,27.44,16.64,41.55-32.8,17.6-72.64,47-81.55,82.06-1,1.95-1.8,4-2.7,6a363.46,363.46,0,0,1-50.29-22.49c-10-5.45-17.12,8.58-8.49,15a304.82,304.82,0,0,0,49.94,30.4c-12.13,38.82-12.62,81.9-2.18,121.47-10.82,4.6-21.57,9.33-31.61,15.31-6.28,3.74-3.36,13.74,3.93,13.58a164.92,164.92,0,0,0,35.52-5,189.68,189.68,0,0,0,27.29,48,147.79,147.79,0,0,0,45.3,38.53c-.78,1.14-1.5,2.31-2.3,3.44a13.2,13.2,0,0,0-2.55,10.31,105.71,105.71,0,0,0-7,20.7,4.24,4.24,0,0,0,.2,2.48c-1.43,13.23,19.72,20.17,26.62,7.34,5.64-10.47,11.1-21,16.15-31.8,47.88,13,101.41,1.5,144.75-27.33A85.63,85.63,0,0,0,1729,448a18.19,18.19,0,0,0,8.69,2.08c.45,1.2.9,2.38,1.27,3.66a11.77,11.77,0,0,0,16,7.4c.15-.06.27-.17.42-.24,10,1.16,18.27-11.17,10.13-21-3-3.6-6.9-6.51-10.68-9.38A17.51,17.51,0,0,0,1750,420c-3.83-4.12-7.93-8-12.06-11.76,2.79-2.76,5.52-5.57,8.15-8.5,20.91-23.33,47.44-60.71,37-92.17,11.55-2.76,23.08-5.74,34.63-9.18C1850.05,288.77,1835.51,238.33,1803,248Z"/><path d="M2655.63,358.69a95.79,95.79,0,0,0-27.31-4.68c.15-15.54.45-36-12.91-44.71-4.43-2.88-9.59-1.27-13.32,1.72l-1.63,1.31c-6,4.82-3.32,12,1.91,15.57.36,4.91-2.37,21.24-2.55,22.89-.19,1.81-.42,3.64-.62,5.46-20.32,3.46-40.54,10.17-59.43,15.81-3.52,1.05-7,2.28-10.48,3.38-.29-11.64-1.56-23.16-6-33.78s-14.76-8.27-19-2.29l-.23-.23c-8.16,14.94-9.89,32-11.46,48.81-6,2.2-12,4.29-17.86,6.63-10.52,4.15-20.84,8.66-31.27,13-20,8.37-10,7.89-10.47-7.47-.84-27.41,1-54,1.42-80.84a360.69,360.69,0,0,1,63.69-40.08,53.39,53.39,0,0,0,3.7,17.21c3.12,7.44,14.41,11.26,18.93,2.47,5.29-10.27,6.19-21.29,5.7-32.49a577.43,577.43,0,0,1,70.27-23.2c-.15,9.2.81,18.24,4.92,27,3.89,8.3,14.51,5.85,19,0,7.39-9.74,9.32-22.45,9.42-35.18,4.53-1,9-2.11,13.58-3.07,28.47-5.54,16.22-48.19-11.93-43.27-1.49.26-3,.56-4.55.83-1.49-12.21-4.32-24.36-11-33.74-3.74-5.29-11-4.3-13.3,1.74-4.26,11.47-4.47,24.66-4.32,37.64a660.75,660.75,0,0,0-77.7,21.36,226.31,226.31,0,0,0-8-32.46c-2.49-7.48-13.53-6.22-13.81,1.87-.43,12.92-.22,25.85,0,38.77-24.35,9.82-47.63,21.65-67.79,36.07-2.73-19.42-5.89-40.5-10.43-61.29,2.45-5.75.34-12.7-4.12-17.12-2.1-7.95-4.43-15.8-7.1-23.39.25-6.57.94-12.87,2.91-18.22,9.63-26.06,47.94-30.07,71.73-35.75,2.15-.52,4.31-.91,6.47-1.39.77,8.94,1.5,17.92,2.25,27,1.63,19.54,29.27,19.79,30.58,0a192.58,192.58,0,0,0-.78-33c18-2.77,36.12-4.75,54.22-6.76.64,9.38,1.7,18.69,4.47,27.6,3.55,11.43,23.16,13.63,25.44,0a130.39,130.39,0,0,0,.9-31.22c8.46-1.07,16.93-2.2,25.39-3.56,23.51-3.78,15.45-37.23-5.28-39-7.81-.67-17.46-1-28.37-.92A240.72,240.72,0,0,0,2586,7.92c-3.51-7.29-14.67-3.44-14.7,4a306.51,306.51,0,0,0,2.07,32.77A568.08,568.08,0,0,0,2513,51.46a313.23,313.23,0,0,0-18.8-46.77c-4.84-9.74-19.63-2.82-17.13,7.22a432.4,432.4,0,0,1,8.57,45c-77.73,17.95-145.58,56.84-104.67,131.61-7.1,4-13.93,8.52-20.84,13.23-11.42,7.79-26.76,15.9-33.47,28.25-3.91,7.2,2,12.95,7.91,13.37a2.6,2.6,0,0,1-.1.25c13.92.5,29.18-8.79,41.59-14.62q5-2.34,9.83-4.76c2.47,20.4,5,40.74,5.67,60.65-6.61,3.67-13.18,7.4-19.66,11.33-10.6,6.42-22.15,12.07-30.74,21.14-7.74,8.18.28,19,10.2,17.52,11.82-1.74,22.84-7.79,33.72-12.67a23.12,23.12,0,0,0,5.38,7.86c-.95,13.79-2.22,27.56-3.35,41.32-.08.86-.2,1.85-.29,2.75-.39.23-.78.37-1.17.65a367.08,367.08,0,0,0-29.2,23c-8.05,6.91-18.88,13.63-22,24.21-1.55,5.23,2.63,9.37,7.49,9.84,10.2,1,20.91-6.7,29.72-11.21,3.92-2,7.75-4.07,11.58-6.15-.05,10,1.08,19.64,4.87,27.37,18.1,36.91,59.65,16.58,87,5.28,3.85-1.6,7.95-3.32,12.16-5.1a108.27,108.27,0,0,0,2.24,27.35c4.19,18.47,29.56,16,35,0,4.77-14.11,5.27-29.39,5.09-44.53,19.95-7.57,41.05-14.47,61.29-18.32-2,9.08-4.28,18.13-6.51,27.12-4.89,19.74,23.61,27.22,30.2,8.32a250.34,250.34,0,0,0,10-38.55,93.65,93.65,0,0,1,18.19,2.15C2673.31,412.49,2685.26,368.59,2655.63,358.69Z"/><path d="M894,235.46c-15.47,3.6-30.91,6.77-46.36,9.78,0-.26,0-.52,0-.78,1.36-26.89.29-57.2-5.44-86q14.2-7.07,27.84-15.49c14.08-8.73,1.41-30.64-13-22.28-7.08,4.1-14.24,8.1-21.39,12.09a168.17,168.17,0,0,0-15.24-34.51c-21.74-36.54-60.71-51.4-100.95-52.88.71-7,1.3-14,1.6-21,.63-14.91-19.17-15-24-3.25a211.27,211.27,0,0,0-8.45,25.78c-46.91,5.51-92.37,25.19-126.22,58.26-7.44-8.39-14.63-17-22.3-25.31-6.91-7.5-17.86,2-13.57,10.47a186.75,186.75,0,0,0,20.62,31.54C517.28,158.37,493.54,211,499,258c-7.78,1-15.71,1.78-23.8,2.52a1.92,1.92,0,0,0-2.38-1.42,35.66,35.66,0,0,1-10.2,2.63c-6.64,1.19-6,11.24,0,12.83a148.72,148.72,0,0,0,37.17,4.68,254.63,254.63,0,0,0,5.13,49.1,201.41,201.41,0,0,0,14.15,42.34c-9.61,7.5-19.41,14.78-28,23.28-4.13,4.11,0,11.72,5.79,9.94a128.21,128.21,0,0,0,31.68-15.33c13.42,22.28,31.09,41,52,54.42q-4.55,11.58-9,23.13c-5.67,14.78,18.36,21.45,23.8,6.57q3.35-9.15,6.68-18.35c26.44,11.15,56.72,14.43,89.32,7,.91-.21,1.76-.5,2.66-.72,3.35,10,6.67,19.89,9.56,29.43,5.17,17.06,32.51,9.36,26.62-7.33-3.44-9.72-6.71-20-10-30.48,27.51-11.29,50.45-28.74,68.95-50.24q17,13.21,34.4,25.91c13.41,9.73,27.32-13.28,13.14-22.47-11.2-7.27-22.22-14.79-33.17-22.42,22.62-33.3,36.57-73.4,41.93-114.54a514.2,514.2,0,0,0,54.77-10.25C915,254.58,908.72,232,894,235.46Zm-97.24,19q-17.58,2.91-35.3,5.6c-7.06,1.07-4.84,11.54,1.61,11.9,10.64.59,21.38.7,32.16.46C792.06,299,785,325,771.73,348.76c-1.53,2.76-3.16,5.44-4.86,8.06q-11.7-8.56-23.31-17.24c-8.42-6.27-18.71,7.41-11.15,14.45q10.7,10,21.78,19.49a144,144,0,0,1-48.73,36.09c-5.12-13-10.89-25.48-17.92-36.56-5.48-8.65-17,0-13.75,6.76A228.85,228.85,0,0,0,680.87,418c-21.93,5.1-44.57,4.22-65.2-3.81,1.93-6.29,3.77-12.61,5.44-18.94,2.58-9.78-12.07-16.7-16.82-7.09-2.62,5.3-5.09,10.69-7.53,16.1-13.2-8.79-25-21.11-34.58-37.53-.7-1.22-1.3-2.49-2-3.73a305,305,0,0,0,30.17-34.11c7-9.2-8.39-21-16-12.37s-15.55,17.23-23.67,25.55c-7.9-21.1-11.91-43.92-12.58-66.56a241.69,241.69,0,0,0,59.07-19.89c13.62-6.64,1.71-26.24-11.78-20.15a251.49,251.49,0,0,1-46.67,15.68c.15-2,.21-4.13.4-6.16,3.52-36,15.76-63.14,35.21-88.36.94-1.09,2-2.13,3-3.21a293.21,293.21,0,0,0,45.09,32.81c14,8.24,26.3-13.05,12.69-21.7a460.13,460.13,0,0,1-39.92-27.92c24.33-19.46,53.66-33.48,84.39-39.1a630,630,0,0,0-2.8,65.44c0,12.2,19.9,15.82,22,3,3.9-23.4,9-47.21,13.36-71.09,4.82.1,9.65.37,14.46.93,38.11,4.47,54.44,30.18,62.27,61.07-13.15,5.41-27.29,10.17-37.86,19-6,4.95.59,13.49,7,12.09,11.87-2.58,23.52-5.77,35-9.46,1.19,8.34,2,16.78,2.72,25.05A376.6,376.6,0,0,1,796.72,254.42Z"/><path d="M933.91,276.8c15.47-3.6,30.91-6.77,46.36-9.78,0,.27,0,.53,0,.79-1.36,26.89-.3,57.2,5.43,86q-14.19,7.08-27.83,15.49c-14.08,8.74-1.41,30.65,13,22.28,7.09-4.1,14.24-8.1,21.4-12.09A167.94,167.94,0,0,0,1007.48,414c21.73,36.55,60.71,51.41,100.94,52.89-.71,7-1.29,14.05-1.59,21-.64,14.92,19.16,15.06,24,3.25a212.89,212.89,0,0,0,8.46-25.77c46.91-5.51,92.37-25.2,126.22-58.26,7.43,8.39,14.62,17,22.3,25.31,6.91,7.5,17.86-2,13.57-10.47a187,187,0,0,0-20.63-31.54c29.82-36.53,53.56-89.13,48.11-136.14,7.79-.95,15.72-1.77,23.8-2.51a1.93,1.93,0,0,0,2.38,1.42,35.33,35.33,0,0,1,10.2-2.63c6.65-1.2,6-11.24,0-12.83a148.12,148.12,0,0,0-37.16-4.68A254.7,254.7,0,0,0,1323,184a200.75,200.75,0,0,0-14.15-42.33c9.62-7.5,19.42-14.79,28-23.29,4.13-4.1,0-11.71-5.78-9.94a128.67,128.67,0,0,0-31.69,15.34c-13.41-22.28-31.09-41-52-54.43q4.54-11.58,9-23.13c5.68-14.77-18.35-21.45-23.8-6.56q-3.35,9.14-6.68,18.35c-26.43-11.15-56.72-14.43-89.32-7-.9.2-1.75.5-2.65.72-3.35-10-6.67-19.89-9.57-29.44-5.17-17.06-32.51-9.35-26.61,7.34,3.43,9.72,6.7,20,10.05,30.48a181.5,181.5,0,0,0-69,50.24q-17-13.21-34.39-25.92C990.9,74.68,977,97.68,991.18,106.88c11.2,7.27,22.22,14.79,33.17,22.41-22.63,33.3-36.58,73.41-41.94,114.55a517.17,517.17,0,0,0-54.77,10.24C912.9,257.68,919.15,280.24,933.91,276.8Zm97.24-18.95q17.58-2.91,35.29-5.6c7.07-1.07,4.85-11.54-1.61-11.9-10.64-.59-21.38-.71-32.16-.46,3.14-26.62,10.23-52.59,23.46-76.39,1.53-2.75,3.17-5.43,4.87-8.05q11.68,8.56,23.31,17.24c8.41,6.27,18.7-7.42,11.15-14.45q-10.71-10-21.79-19.49a144.06,144.06,0,0,1,48.73-36.09c5.13,13,10.9,25.47,17.92,36.56,5.49,8.65,17,0,13.76-6.76A227.87,227.87,0,0,0,1147,94.29c21.94-5.1,44.58-4.23,65.21,3.81-1.94,6.29-3.77,12.6-5.44,18.94-2.58,9.78,12.06,16.7,16.81,7.09,2.62-5.3,5.1-10.69,7.54-16.1,13.19,8.79,25,21.1,34.57,37.53.71,1.21,1.31,2.49,2,3.72a304.83,304.83,0,0,0-30.16,34.12c-7,9.19,8.39,21,16,12.37s15.55-17.23,23.67-25.55c7.91,21.1,11.91,43.91,12.58,66.56a241.82,241.82,0,0,0-59.07,19.88c-13.62,6.64-1.71,26.25,11.78,20.16a251.74,251.74,0,0,1,46.67-15.68c-.14,2.05-.2,4.12-.4,6.15-3.52,36-15.75,63.14-35.21,88.36-.93,1.09-2,2.14-3,3.21a294,294,0,0,0-45.1-32.81c-14-8.24-26.29,13.06-12.68,21.71a457.8,457.8,0,0,1,39.91,27.92c-24.32,19.45-53.65,33.47-84.39,39.1a630,630,0,0,0,2.81-65.44c0-12.21-19.9-15.82-22-3-3.9,23.4-9,47.21-13.36,71.1-4.83-.1-9.65-.37-14.47-.94-38.11-4.46-54.44-30.17-62.26-61.06,13.15-5.41,27.28-10.18,37.85-19,6-4.95-.58-13.49-7-12.09-11.87,2.58-23.52,5.77-35,9.46-1.19-8.34-2-16.78-2.72-25.05A376.63,376.63,0,0,1,1031.15,257.85Z"/><path d="M2259.41,259.25c-13.41,3.22-26.67,6.9-39.86,10.82,0-1.25,0-2.51,0-3.76-.15-10,3.85-28.79-5.89-35.29a4.71,4.71,0,0,0-5.09-2l-1.15.37c-2,.64-4.18,2.77-3.88,5.09,1.68,12.95-3.15,28.54-6,42.46a738.77,738.77,0,0,0-69.12,26.65c.35-11.64.71-23.29,1-35,.2-9.26-14-11.28-16.22-2.19a305,305,0,0,0-7.67,47.94c-4,1.94-8,3.85-11.89,5.88-15.62,8-30.88,16.7-45.85,25.88a241.89,241.89,0,0,0-4.11-27c-.4-7.75-13.19-11.78-16.65-1.83-5.13,14.75-8.15,31.44-9.68,48.61q-13.72,9.45-27,19.52c-2,1.49-19,14.26-22.45,20.16-1.8-9.84-4-43.67-6-80.42,9.64-5.26,19-10.74,27.8-16.08,8.45-5.14.65-18.55-7.77-13.29-6.83,4.27-13.85,8.35-20.93,12.36-2.27-43.81-4.18-87.19-4.82-95.63l-.15-1.93c14.41-7.66,28.57-15.69,42.33-24.62,10.47-6.79,1.21-22.91-9.82-16.8-11.53,6.37-22.86,13-34.18,19.75-1.8-23.19-3.6-46.37-5.07-69.58a507,507,0,0,0,58.25-36.38c13.08-9.46,1.71-30.38-12.9-22.08-15.06,8.56-30.28,17.11-45.5,25.7.74-22.29,1.74-45.34-5.4-64.63-1.85-5-8.54-7.9-12.67-3.35-18.64,20.55-18.5,51.2-19.62,77.94-.17,4-.25,7.92-.33,11.88-13.71,8-27.34,16.14-40.64,24.56-10.4,6.58-.63,19.62,7.8,16.47,11-3.38,22-7.38,32.9-11.92.53,24.86,2,49.76,3.15,74.54-14.16,7.74-28.46,15.52-40.22,26.49-3,2.76.24,6.81,3.64,6.24,13-2.18,25.44-7.36,37.49-13.24,1.46,33.11,3.24,66.21,5.09,99.31-10.13,5.81-20.1,11.81-29.59,18.32a2,2,0,0,0,1.57,3.72,183.83,183.83,0,0,0,28.76-8.58q1.55,27.47,3.08,54.92a6.85,6.85,0,0,0-4.66.9c-11.88,6.77-23.63,13.75-35.38,20.75-6.58,3.91-.81,13.44,5.94,10.16,11.57-5.63,23.12-11.28,34.6-17.09.29,10.26,1.15,21.45,6.32,29.12,11.75,17.42,33.24,15.63,49.32,6.22,12.93-7.56,25-16.73,37.05-26.14.56,7,1.24,13.94,2.13,20.47,2.24,16.35,25.19,10.25,26.67-3.61,1.39-12.93,2.43-26.92,2.92-41.2,4.63-3.32,9.3-6.56,14.1-9.56,13.39-8.37,27.09-16.11,41-23.46,0,1.39,0,2.8.08,4.19.46,15.42,24.62,15.44,24,0-.22-5.41-.24-10.79-.32-16.17q31.36-15.06,64.1-26.87c-.95,11.12-1.86,22.25-2.9,33.34-1.59,16.93,25.81,17.28,26.7,0,.73-14.09,1.64-28.2,2.4-42.31q26.28-8.4,53.28-14.83C2300,296.35,2287.91,252.4,2259.41,259.25Z"/></g></g></svg>